<?xml version="1.0" encoding="UTF-8" standalone="no"?>
<!-- Created with Inkscape (http://www.inkscape.org/) -->

<svg
   xmlns:dc="http://purl.org/dc/elements/1.1/"
   xmlns:cc="http://creativecommons.org/ns#"
   xmlns:rdf="http://www.w3.org/1999/02/22-rdf-syntax-ns#"
   xmlns:svg="http://www.w3.org/2000/svg"
   xmlns="http://www.w3.org/2000/svg"
   xmlns:sodipodi="http://sodipodi.sourceforge.net/DTD/sodipodi-0.dtd"
   xmlns:inkscape="http://www.inkscape.org/namespaces/inkscape"
   id="svg2"
   version="1.1"
   inkscape:version="0.48.4 r9939"
   width="1069.805"
   height="818.16375"
   xml:space="preserve"
   sodipodi:docname="globaleaks.eps"><metadata
     id="metadata8"><rdf:RDF><cc:Work
         rdf:about=""><dc:format>image/svg+xml</dc:format><dc:type
           rdf:resource="http://purl.org/dc/dcmitype/StillImage" /><dc:title></dc:title></cc:Work></rdf:RDF></metadata><defs
     id="defs6"><clipPath
       clipPathUnits="userSpaceOnUse"
       id="clipPath30"><path
         d="m 0,654.531 855.844,0 L 855.844,0 0,0 0,654.531 z"
         id="path32" /></clipPath></defs><sodipodi:namedview
     pagecolor="#ffffff"
     bordercolor="#666666"
     borderopacity="1"
     objecttolerance="10"
     gridtolerance="10"
     guidetolerance="10"
     inkscape:pageopacity="0"
     inkscape:pageshadow="2"
     inkscape:window-width="640"
     inkscape:window-height="480"
     id="namedview4"
     showgrid="false"
     inkscape:zoom="0.28845081"
     inkscape:cx="534.90253"
     inkscape:cy="409.08188"
     inkscape:window-x="0"
     inkscape:window-y="24"
     inkscape:window-maximized="0"
     inkscape:current-layer="g10" /><g
     id="g10"
     inkscape:groupmode="layer"
     inkscape:label="globaleaks"
     transform="matrix(1.25,0,0,-1.25,0,818.16375)"><path
       d="m 561.112,629.496 4.173,0 0,0.585 -4.173,0 0,-0.585 z"
       style="fill:#ffffff;fill-opacity:1;fill-rule:nonzero;stroke:none"
       id="path12" /><g
       id="g14"
       transform="translate(433.0811,630.0811)"><path
         d="m 0,0 -262.536,0 -107.51,-218.661 60.199,0 -62.42,-223.986 372.267,0 L 0,0 z"
         style="fill:#3369bc;fill-opacity:1;fill-rule:nonzero;stroke:none"
         id="path16" /></g><g
       id="g18"
       transform="translate(170.5446,630.081)"><path
         d="m 0,0 -107.51,-218.661 60.2,0 -62.42,-223.986 372.266,0 L 262.536,0 0,0 z"
         style="fill:#3369bc;fill-opacity:1;fill-rule:nonzero;stroke:none"
         id="path20" /></g><g
       id="g22"
       transform="translate(387.2656,630.0811)"><path
         d="m 0,0 -107.508,-218.645 49.604,0 0,-224.008 472.765,0 L 414.861,0 0,0 z"
         style="fill:#151b34;fill-opacity:1;fill-rule:nonzero;stroke:none"
         id="path24" /></g><g
       id="g26"><g
         id="g28"
         clip-path="url(#clipPath30)"><g
           id="g34"
           transform="translate(802.127,187.4395)"><path
             d="m 0,0 -187.762,0 33.187,95.083 c 3.162,8.917 -1.516,18.704 -10.433,21.855 -8.916,3.153 -18.704,-1.519 -21.854,-10.432 l -6.279,-16.623 0,68.014 c 0,12.233 -9.914,22.147 -22.151,22.147 -5.674,0 -10.851,-2.151 -14.769,-5.667 l 0,3.212 c 0,11.866 -9.355,21.483 -21.093,22.043 l 2.76,24.365 -58.677,0 107.504,218.645 L 0,442.642 0,0 z m -265.899,193.713 c -4.312,-4.047 -7.043,-9.745 -7.043,-16.124 l 0,-3.212 c -3.923,3.516 -9.082,5.667 -14.775,5.667 -12.226,0 -22.14,-9.914 -22.14,-22.147 l 0,-19.196 c -1.065,0.208 -2.159,0.324 -3.291,0.324 -9.507,0 -17.22,-7.712 -17.22,-17.233 l 0,-121.792 -72.693,0 33.199,95.083 c 3.151,8.917 -1.527,18.704 -10.438,21.855 -8.924,3.153 -18.71,-1.519 -21.854,-10.432 l -6.278,-16.623 0,68.014 c 0,12.233 -9.92,22.147 -22.159,22.147 -5.675,0 -10.844,-2.151 -14.763,-5.667 l 0,3.212 c 0,11.866 -9.36,21.483 -21.099,22.043 l 2.762,24.365 -58.679,0 107.503,218.645 199.562,0 -115.063,-234.058 66.161,0 -1.692,-14.871 z m -216.715,0 c -4.319,-4.047 -7.043,-9.745 -7.043,-16.124 l 0,-3.212 c -3.924,3.516 -9.082,5.667 -14.775,5.667 -12.232,0 -22.147,-9.914 -22.147,-22.147 l 0,-19.196 c -1.064,0.208 -2.154,0.324 -3.285,0.324 -9.513,0 -17.225,-7.712 -17.225,-17.233 l 0,-121.798 -194.224,0 15.171,54.421 c 3.011,-0.644 6.107,-1.094 9.312,-1.094 l 17.707,0 c 24.731,0 44.78,20.049 44.78,44.785 l 0,4.051 c 0,24.737 -20.049,44.785 -44.78,44.785 l -1.235,0 21.465,77.038 -60.199,0 107.51,218.662 199.562,0 -115.069,-234.058 66.159,0 -1.684,-14.871 z m -158.548,264.336 -122.655,-249.46 64.658,0 -62.438,-223.987 777.004,0.003 0,473.444 -656.569,0 z m 469.518,-154.407 c 7.002,0 12.665,5.676 12.665,12.676 0,7.001 -5.663,12.677 -12.665,12.677 -7.006,0 -12.675,-5.676 -12.675,-12.677 0,-7 5.669,-12.676 12.675,-12.676 m 1.417,25.353 c -7.005,0 -12.674,-5.676 -12.674,-12.677 0,-7 5.669,-12.676 12.674,-12.676 7.002,0 12.671,5.676 12.671,12.676 0,7.001 -5.669,12.677 -12.671,12.677 m -216.714,0 c -7.008,0 -12.677,-5.676 -12.677,-12.677 0,-7 5.669,-12.676 12.677,-12.676 7.001,0 12.669,5.676 12.669,12.676 0,7.001 -5.668,12.677 -12.669,12.677 m -216.716,0 c -7.008,0 -12.676,-5.676 -12.676,-12.677 0,-7 5.668,-12.676 12.676,-12.676 6.995,0 12.664,5.676 12.664,12.676 0,7.001 -5.669,12.677 -12.664,12.677"
             style="fill:#ffffff;fill-opacity:1;fill-rule:nonzero;stroke:none"
             id="path36" /></g></g></g><text
       transform="matrix(1,0,0,-1,60.8135,59.251)"
       id="text38"><tspan
         style="fill:#3369bc;fill-opacity:1;fill-rule:nonzero;stroke:none;font-family:Helvetica Neue;font-variant:normal;font-weight:bold;font-stretch:condensed;font-size:140.6437;writing-mode:lr;-inkscape-font-specification:HelveticaNeue-CondensedBlack"
         x="0 78.1978972 143.3159303 221.5138275 302.2433113"
         y="0"
         sodipodi:role="line"
         id="tspan40">GLOBA</tspan><tspan
         style="fill:#151b34;fill-opacity:1;fill-rule:nonzero;stroke:none;font-family:Helvetica Neue;font-variant:normal;font-weight:bold;font-stretch:condensed;font-size:140.6437;writing-mode:lr;-inkscape-font-specification:HelveticaNeue-CondensedBlack"
         x="380.4412085"
         y="0"
         id="tspan42">L</tspan><tspan
         style="fill:#3369bc;fill-opacity:1;fill-rule:nonzero;stroke:none;font-family:Helvetica Neue;font-variant:normal;font-weight:bold;font-stretch:condensed;font-size:140.6437;writing-mode:lr;-inkscape-font-specification:HelveticaNeue-CondensedBlack"
         x="445.5592416 515.8810916 594.0789888 672.276886"
         y="0"
         sodipodi:role="line"
         id="tspan44">EAKS</tspan></text>
</g></svg>