<?xml version="1.0" encoding="UTF-8" standalone="no"?>
<!-- Generator: Adobe Illustrator 15.1.0, SVG Export Plug-In . SVG Version: 6.00 Build 0)  -->

<svg
   xmlns:dc="http://purl.org/dc/elements/1.1/"
   xmlns:cc="http://creativecommons.org/ns#"
   xmlns:rdf="http://www.w3.org/1999/02/22-rdf-syntax-ns#"
   xmlns:svg="http://www.w3.org/2000/svg"
   xmlns="http://www.w3.org/2000/svg"
   xmlns:sodipodi="http://sodipodi.sourceforge.net/DTD/sodipodi-0.dtd"
   xmlns:inkscape="http://www.inkscape.org/namespaces/inkscape"
   version="1.1"
   id="Layer_1"
   x="0px"
   y="0px"
   width="800px"
   height="800px"
   viewBox="0 0 800 800"
   enable-background="new 0 0 800 800"
   xml:space="preserve"
   inkscape:version="0.91 r13725"
   sodipodi:docname="wbs.svg"><metadata
     id="metadata73"><rdf:RDF><cc:Work
         rdf:about=""><dc:format>image/svg+xml</dc:format><dc:type
           rdf:resource="http://purl.org/dc/dcmitype/StillImage" /><dc:title></dc:title></cc:Work></rdf:RDF></metadata><defs
     id="defs71" /><sodipodi:namedview
     pagecolor="#ffffff"
     bordercolor="#666666"
     borderopacity="1"
     objecttolerance="10"
     gridtolerance="10"
     guidetolerance="10"
     inkscape:pageopacity="0"
     inkscape:pageshadow="2"
     inkscape:window-width="640"
     inkscape:window-height="480"
     id="namedview69"
     showgrid="false"
     inkscape:zoom="0.295"
     inkscape:cx="400"
     inkscape:cy="400"
     inkscape:window-x="75"
     inkscape:window-y="34"
     inkscape:window-maximized="0"
     inkscape:current-layer="Layer_1" /><g
     id="g3"><path
       fill="#028484"
       d="M125,473.668h11.767l5.469,35.954l6.833-35.954h10.512l6.423,36.255l6.364-36.255h9.674l-11.229,52.321   h-10.275l-6.899-36.401l-7.074,36.401h-10.275L125,473.668z"
       id="path5" /><path
       fill="#028484"
       d="M186.406,473.668h11.402v20.99h12.549v-20.99h11.408v52.053h-11.408v-21.203h-12.549v21.203h-11.402   V473.668z"
       id="path7" /><path
       fill="#028484"
       d="M231.616,473.668h11.498v52.053h-11.498V473.668z"
       id="path9" /><path
       fill="#028484"
       d="M284.958,484.956l-9.589,3.492c-1.278-4.211-3.788-6.482-7.433-6.482c-1.616,0-2.987,0.716-3.968,1.343   c-0.989,1.132-1.435,2.217-1.435,3.617c0,1.373,0.564,2.572,1.699,3.586c1.194,0.651,3.646,1.852,7.349,3.406   c3.342,1.106,5.908,2.267,7.879,3.456c1.975,1.135,3.526,3.051,4.692,5.078c1.164,2.213,1.76,4.691,1.76,7.471   c0,4.71-1.67,8.786-4.958,11.888c-3.465,3.166-7.942,4.537-13.464,4.537c-9.469,0-15.5-4.725-18.129-14.097l9.942-2.93   c1.287,5.312,4.096,7.887,8.339,7.887c2.088,0,3.642-0.717,4.894-1.379c1.162-1.196,1.882-2.536,1.882-4.384   c0-1.164-0.444-2.361-1.286-3.288c-0.865-1.014-2.958-2.146-6.031-3.435c-4.004-1.222-6.929-2.629-8.904-3.761   c-1.909-1.254-3.551-2.746-4.833-4.899c-1.255-2.145-1.976-4.415-1.976-7.194c0-4.631,1.61-8.518,4.597-11.708   c3.055-2.93,6.993-4.42,11.95-4.42C277.075,472.74,282.693,476.74,284.958,484.956z"
       id="path11" /><path
       fill="#028484"
       d="M288.841,473.668h32.554v9.641h-10.689v42.412h-11.413v-42.412h-10.452V473.668z"
       id="path13" /><path
       fill="#028484"
       d="M325.339,473.668h11.552v42.161h16.761v9.892h-28.313V473.668z"
       id="path15" /><path
       fill="#028484"
       d="M358.726,473.668h31.662v8.721h-20.25v12.27h15.737v8.843h-15.737v12.812h20.25v9.408h-31.662V473.668z"
       id="path17" /><path
       fill="#028484"
       d="M396,473.668h17.891c4.092,0,7.287,0.236,9.41,0.716c2.089,0.892,3.938,2.356,5.313,4.535   c1.432,2.087,2.238,4.895,2.238,8.305c0,5.91-2.535,9.677-7.551,11.285c5.939,2.066,8.896,6.214,8.896,12.635   c0,3.489-0.747,6.243-2.328,8.722c-1.669,2.367-3.615,3.911-6.036,4.749c-2.325,0.712-5.614,1.106-9.942,1.106H396V473.668z    M407.079,494.658h3.671c3.703,0,6.063-0.74,6.934-2.115c0.956-1.38,1.433-2.955,1.433-4.453c0-1.521-0.477-3.134-1.433-4.276   c-0.87-1.132-2.927-1.962-6.155-1.962h-4.449V494.658z M407.079,516.671h5.555c5.225,0,7.854-2.038,7.854-6.748   c0-2.629-0.533-4.241-1.908-5.405c-1.315-0.865-3.258-1.586-5.945-1.586h-5.555V516.671z"
       id="path19" /><path
       fill="#028484"
       d="M440.019,473.668h11.474v42.161h16.72v9.892h-28.193V473.668z"
       id="path21" /><path
       fill="#028484"
       d="M509.609,499.529c0,17.857-6.333,26.818-18.937,26.818c-6.332,0-11.021-2.063-14.155-6.568   c-3.29-4.899-4.84-11.468-4.84-20.25c0-17.86,6.364-26.789,18.878-26.789c6.212,0,10.989,2.06,14.127,6.723   C507.881,483.813,509.609,490.626,509.609,499.529z M497.481,499.529c0-6.986-0.595-11.589-1.669-14.004   c-1.021-2.303-2.84-3.56-5.257-3.56c-2.328,0-4.063,1.257-5.136,3.56c-1.079,2.415-1.673,7.018-1.673,14.004   c0,6.869,0.594,11.558,1.673,13.828c1.072,2.597,2.808,3.851,5.136,3.851c2.417,0,4.088-1.254,5.257-3.492   C496.887,511.445,497.481,506.817,497.481,499.529z"
       id="path23" /><path
       fill="#028484"
       d="M511.937,473.668h11.74l5.496,35.954l6.835-35.954h10.517l6.421,36.255l6.301-36.255h9.738l-11.261,52.321   H547.48l-6.901-36.401l-7.076,36.401h-10.154L511.937,473.668z"
       id="path25" /><path
       fill="#028484"
       d="M573.341,473.668h11.381v52.053h-11.381V473.668z"
       id="path27" /><path
       fill="#028484"
       d="M594.188,473.668h12.785l13.373,32.344v-32.344h8.847v52.053H618.95l-15.895-37.78v37.78h-8.867V473.668z"
       id="path29" /><path
       fill="#028484"
       d="M656.935,497.922H675v27.799h-4.833l-1.524-5.941c-2.716,4.505-7.02,6.568-12.57,6.568   c-5.915,0-10.632-2.271-14.158-6.779c-3.528-4.843-5.138-10.988-5.138-18.993c0-8.638,1.609-15.207,5.081-20.225   c3.427-5.075,8.478-7.61,15.229-7.61c10.688,0,16.607,6.002,17.914,17.886l-10.329,1.737c-0.72-6.995-3.105-10.397-7.469-10.397   c-2.506,0-4.533,1.343-6.123,3.828c-1.582,2.654-2.296,7.34-2.296,14.362c0,6.242,0.714,10.629,2.296,13.201   c1.526,2.472,3.736,3.851,6.568,3.851c4.695,0,7.023-3.492,7.023-10.391h-7.736V497.922z"
       id="path31" /></g><g
     id="g33"><path
       fill="#E6B426"
       d="M221.975,546.629l-5.469,4.62c-1.852-2.743-3.76-3.878-5.728-3.878c-1.021,0-1.735,0.269-2.396,0.627   c-0.536,0.508-0.837,1.171-0.837,1.708c0,0.651,0.242,1.364,0.6,1.912c0.538,0.806,2.448,2.328,5.313,4.864   c2.813,2.417,4.512,3.792,5.082,4.447c1.492,1.404,2.537,2.779,3.166,4.362c0.628,1.197,0.954,2.747,0.954,4.18   c0,3.224-1.078,6.01-3.29,7.797c-2.146,2.21-5.017,3.255-8.504,3.255c-2.722,0-5.053-0.896-7.142-2.087   c-1.97-1.38-3.671-3.413-5.166-6.211l6.18-3.893c1.792,3.531,3.911,5.082,6.332,5.082c1.255,0,2.36-0.357,3.075-0.863   c0.869-0.863,1.288-1.705,1.288-2.629c0-0.752-0.301-1.701-0.836-2.507c-0.714-0.927-2.152-2.124-4.299-4.219   c-4.185-3.167-6.814-5.702-8.123-7.822c-1.139-1.815-1.857-3.643-1.857-5.193c0-2.811,1.139-5.143,3.166-7.228   c1.917-1.737,4.448-2.746,7.383-2.746c1.962,0,3.787,0.505,5.404,1.367C218.094,542.597,219.909,544.15,221.975,546.629z"
       id="path35" /><path
       fill="#E6B426"
       d="M263.575,540.208c5.344,0,10.066,2.145,13.914,5.999c3.947,3.975,5.886,8.513,5.886,14.429   c0,5.438-1.939,10.062-5.763,13.972c-3.915,3.829-8.603,5.916-14.038,5.916c-5.762,0-10.452-2.087-14.215-5.916   c-3.827-4.118-5.794-8.778-5.794-14.183c0-3.793,0.954-7.08,2.688-10.067c1.817-2.986,4.182-5.551,7.315-7.403   C256.647,541.217,260.021,540.208,263.575,540.208z M263.515,547.371c-3.494,0-6.567,1.439-8.988,3.878   c-2.36,2.311-3.647,5.383-3.647,9.387c0,4.295,1.583,7.403,4.636,9.854c2.298,2.063,5.075,2.926,8.06,2.926   c3.526,0,6.449-1.189,8.868-3.943c2.48-2.271,3.612-5.376,3.612-8.836c0-3.86-1.132-6.779-3.612-9.387   C269.906,548.811,267.041,547.371,263.515,547.371z"
       id="path37" /><path
       fill="#E6B426"
       d="M306.163,541.217h7.351v31.479h10.512v6.783h-17.862V541.217z"
       id="path39" /><path
       fill="#E6B426"
       d="M345.29,541.217h7.285v24.856c0,2.148,0.209,3.398,0.596,4.416c0.358,1.01,1.019,1.547,1.825,2.206   c0.869,0.362,1.879,0.72,3.134,0.72c1.256,0,2.36-0.357,3.349-0.72c0.834-0.831,1.549-1.576,1.852-2.267   c0.358-1.074,0.595-2.809,0.595-5.313v-23.899h7.287v22.879c0,3.943-0.242,6.602-0.719,7.94c-0.354,1.379-1.251,2.987-2.383,4.309   c-1.261,1.433-2.661,2.625-4.33,3.134c-1.587,0.687-3.381,1.045-5.533,1.045c-2.746,0-5.193-0.69-7.28-2.087   c-2.007-1.168-3.44-2.601-4.332-4.545c-0.868-2.027-1.344-5.132-1.344-9.796V541.217z"
       id="path41" /><path
       fill="#E6B426"
       d="M391.879,541.217h21.023v7.289h-6.927v30.973h-7.412v-30.973h-6.685V541.217z"
       id="path43" /><path
       fill="#E6B426"
       d="M433.394,541.217h7.194v38.262h-7.194V541.217z"
       id="path45" /><path
       fill="#E6B426"
       d="M482.817,540.208c5.344,0,10.007,2.145,13.95,5.999c3.819,3.975,5.791,8.513,5.791,14.429   c0,5.438-1.972,10.062-5.791,13.972c-3.795,3.829-8.424,5.916-13.95,5.916c-5.73,0-10.421-2.087-14.245-5.916   c-3.757-4.118-5.765-8.778-5.765-14.183c0-3.793,0.863-7.08,2.723-10.067c1.79-2.986,4.18-5.551,7.192-7.403   C475.83,541.217,479.207,540.208,482.817,540.208z M482.729,547.371c-3.522,0-6.539,1.439-8.932,3.878   c-2.414,2.311-3.585,5.383-3.585,9.387c0,4.295,1.465,7.403,4.447,9.854c2.398,2.063,5.081,2.926,8.157,2.926   c3.499,0,6.364-1.189,8.87-3.943c2.392-2.271,3.558-5.376,3.558-8.836c0-3.86-1.166-6.779-3.558-9.387   C489.182,548.811,486.226,547.371,482.729,547.371z"
       id="path47" /><path
       fill="#E6B426"
       d="M525.496,541.217h6.873l16.365,25.272v-25.272h7.286v38.262h-6.989l-16.335-25.21v25.21h-7.2V541.217z"
       id="path49" /><path
       fill="#E6B426"
       d="M600.787,546.629l-5.468,4.62c-1.846-2.743-3.793-3.878-5.673-3.878c-1.013,0-1.791,0.269-2.386,0.627   c-0.537,0.508-0.869,1.171-0.869,1.708c0,0.651,0.183,1.364,0.601,1.912c0.654,0.806,2.415,2.328,5.345,4.864   c2.838,2.417,4.515,3.792,5.048,4.447c1.46,1.404,2.539,2.779,3.134,4.362c0.661,1.197,0.955,2.747,0.955,4.18   c0,3.224-1.136,6.01-3.343,7.797c-2.093,2.21-4.929,3.255-8.45,3.255c-2.688,0-5.048-0.896-7.078-2.087   c-2.065-1.38-3.765-3.413-5.199-6.211l6.208-3.893c1.831,3.531,3.828,5.082,6.304,5.082c1.258,0,2.298-0.357,3.134-0.863   c0.81-0.863,1.258-1.705,1.258-2.629c0-0.752-0.296-1.701-0.989-2.507c-0.562-0.927-2.054-2.124-4.204-4.219   c-4.212-3.167-6.815-5.702-8.067-7.822c-1.221-1.815-1.911-3.643-1.911-5.193c0-2.811,1.107-5.143,3.077-7.228   c2-1.737,4.537-2.746,7.469-2.746c1.963,0,3.729,0.505,5.494,1.367C596.876,542.597,598.787,544.15,600.787,546.629z"
       id="path51" /></g><path
     fill="#028484"
     d="M311.42,376.627L311.42,376.627c-0.177-4.329,0.118-8.687,0.981-12.839  c3.918-20.336,17.476-41.606,22.912-49.481c1.375-2.158,2.12-3.29,2.12-3.29l0,0l64.925-91.54h-51.274l-79.682,112.687  c-0.601,0.713-1.228,1.909-1.792,2.687c-0.181,0.419-0.36,0.597-0.6,0.806c-0.269,0.629-0.537,1.164-0.955,1.49  c0,0.275,0,0.275-0.12,0.36c-0.834,1.4-1.616,2.958-2.417,4.689c-0.092,0.034-0.152,0.359-0.392,0.838  c-0.658,1.613-1.314,3.164-2.029,4.656c0,0-0.118,0.179-0.118,0.392c-0.118,0-0.183,0.506-0.183,0.506  c-0.478,1.137-0.833,2.269-1.193,3.466c-0.057,0.36-0.18,0.535-0.297,0.713c-0.356,1.376-0.716,2.689-1.133,4.364c0,0,0,0,0,0.181  c-0.124,0.112-0.152,0.477-0.152,0.713c-0.24,1.042-0.508,1.972-0.6,2.99c-0.118,0.354-0.203,0.713-0.354,1.132  c-0.154,1.196-0.36,2.355-0.45,3.499c0,0.269-0.118,0.446-0.118,0.621c0,0,0,0,0,0.152c-0.177,1.162-0.301,2.774-0.326,3.937  c0,0.333,0,0.806-0.152,1.139c0,1.169-0.124,2.002-0.124,3.08c0,0.537,0,0.537,0,0.896c0,0,0,0.295,0,0.478  c0,0.987,0,1.793,0.124,3.043c0,0.301,0,0.718,0,1.138c0.152,1.19,0.152,2.655,0.301,3.944c0,0.354,0.12,0.646,0.12,1.373  c0.057,0.117,0.057,0.235,0.057,0.414c0.208,1.849,0.542,3.583,0.804,5.315c0,0.235,0,0.235,0.118,0.235  c0.269,1.734,0.6,3.5,1.047,5.142c0,0.15,0.122,0.296,0.122,0.509c0,0.146,0.088,0.146,0.088,0.146  c0.363,1.558,0.745,3.231,1.286,4.662c0.029,0.236,0.177,0.36,0.236,0.897c0.51,1.072,1.015,2.72,1.492,3.853  c0.12,0.293,0.152,0.385,0.276,0.714c0.501,1.347,1.159,2.779,1.844,4.094c0.156,0.241,0.272,0.627,0.424,1.046  c0.564,1.1,1.253,2.362,1.943,3.492c0.116,0.301,0.176,0.301,0.294,0.596c0.688,1.343,1.551,2.48,2.328,3.884  c0.182,0.244,0.356,0.658,0.601,0.957c0.774,1.074,1.61,2.269,2.507,3.525c0,0,0.064,0,0.181,0.178  c0.864,1.132,1.846,2.389,2.865,3.438c0.237,0.21,0.478,0.656,0.779,0.859c1.014,0.929,2.027,2.093,3.134,3.29  c5.044,4.925,10.51,8.628,16.333,11.467h81.028l-0.152-0.238C341.527,443.083,312.107,413.334,311.42,376.627z M292.249,311.017  l8.956-12.428h39.009l-8.993,12.428H292.249z"
     id="path53" /><path
     fill="#028484"
     d="M391.879,401.867l-6.034-36.942c2.419-2.062,3.943-4.717,3.943-8.005c0-5.349-4.24-9.707-9.675-9.707  c-5.346,0-9.706,4.358-9.706,9.707c0,3.288,1.524,5.943,4.029,8.005l-5.972,36.942H391.879z"
     id="path55" /><g
     id="g57"><polygon
       fill="none"
       points="527.529,365.252 566.468,365.252 575.493,352.413 536.609,352.413  "
       id="polygon59" /><path
       fill="none"
       d="M467.589,274.336c-6.239,0-11.38,5.14-11.38,11.414c0,6.152,5.141,11.197,11.38,11.197   c6.357,0,11.375-5.045,11.375-11.197C478.964,279.476,473.946,274.336,467.589,274.336z"
       id="path61" /><path
       fill="#EDCB62"
       d="M532.488,349.24c5.37-7.816,18.929-29.203,22.814-49.277c0.896-4.476,1.255-8.655,0.986-12.874   c-0.692-36.884-30.043-66.443-66.69-67.612h-0.116h-37.067l-52.085,89.838c28.341,8.629,48.887,34.911,48.887,66.154   c0,37.865-30.729,68.688-68.863,68.688h84.991l64.933-91.743C530.277,352.413,531.113,351.215,532.488,349.24z M467.589,296.947   c-6.239,0-11.38-5.045-11.38-11.197c0-6.274,5.141-11.414,11.38-11.414c6.357,0,11.375,5.14,11.375,11.414   C478.964,291.902,473.946,296.947,467.589,296.947z"
       id="path63" /><path
       fill="#E6B426"
       d="M609.656,283.719c0-1.463-0.09-2.629-0.293-4.243c0-0.294-0.092-0.713-0.092-1.159   c0-0.455-0.062-0.455-0.062-0.567c-0.207-1.707-0.384-3.707-0.802-5.136c0,0,0-0.299,0-0.514c-0.309-1.578-0.72-3.284-1.173-5.045   c0,0,0-0.511-0.142-0.511c0,0,0-0.301-0.061-0.301c-0.364-1.517-0.745-2.897-1.262-4.204c-0.053-0.537-0.203-0.901-0.295-1.198   c-0.478-1.162-0.891-2.301-1.314-3.733c-0.118-0.21-0.234-0.624-0.301-0.774c-0.653-1.403-1.313-2.929-1.876-4.003   c-0.215-0.502-0.333-0.985-0.512-1.071c-0.599-1.347-1.254-2.545-1.942-3.795c-0.117-0.123-0.117-0.269-0.175-0.269   c-0.806-1.586-1.526-2.72-2.48-3.857c-0.178-0.503-0.293-0.922-0.537-1.015c-0.777-1.191-1.608-2.444-2.48-3.643   c-0.089,0-0.148-0.178-0.148-0.178c-0.954-1.162-1.968-2.328-2.924-3.465c-0.242-0.297-0.511-0.297-0.66-0.715   c-1.137-1.195-2.119-2.273-3.285-3.405c-4.897-4.869-10.542-8.838-16.337-11.441h-28.401h-52.504   c36.647,1.169,65.998,30.729,66.69,67.612c0.269,4.219-0.091,8.398-0.986,12.874c-3.886,20.074-17.444,41.461-22.814,49.277   c-1.375,1.975-2.211,3.173-2.211,3.173l-64.933,91.743h17.385h33.988l79.621-112.831c0.653-0.752,1.257-1.525,1.76-2.564   c0.156-0.392,0.393-0.451,0.569-0.896c0.42-0.537,0.688-0.9,0.953-1.647h0.151c0.865-1.465,1.616-2.981,2.42-4.626   c0.087-0.419,0.301-0.844,0.355-0.844c0.776-1.431,1.496-3.274,2.038-4.864c0-0.146,0.119-0.146,0.119-0.269   c0.116-0.237,0.202-0.444,0.294-0.59c0.419-1.198,0.772-2.367,1.165-3.503c0-0.292,0.124-0.505,0.21-0.806   c0.36-1.133,0.72-2.684,1.19-4.002c0-0.33,0-0.33,0.124-0.33c0-0.385,0-0.713,0-0.804c0.296-1.132,0.535-1.97,0.72-3.106   c0.084-0.385,0.084-0.745,0.234-1.162c0.184-1.166,0.36-2.208,0.452-3.435c0.115,0,0.115-0.421,0.115-0.421   c0.153-1.643,0.269-2.981,0.356-4.416c0.09-0.176,0.09-0.657,0.09-1.138c0-0.595,0.15-1.792,0.15-2.986c0,0,0-0.473,0-0.717   c0-0.181,0-0.385,0-0.385c0-1.046,0-2.064,0-2.784C609.807,284.315,609.807,284.017,609.656,283.719z M566.468,365.252h-38.938   l9.08-12.839h38.884L566.468,365.252z"
       id="path65" /><line
       fill="none"
       stroke="#E6B426"
       stroke-width="0"
       stroke-linecap="round"
       stroke-linejoin="round"
       x1="489.482"
       y1="219.477"
       x2="489.599"
       y2="219.477"
       id="line67" /></g></svg>