<svg version="1.1" xmlns="http://www.w3.org/2000/svg" xmlns:xlink="http://www.w3.org/1999/xlink" data-browser="Safari[9.0]" preserveAspectRatio="xMidYMid meet" viewBox="0 0 491 105"><g id="logo__item--business" class="logo__item">
                <g class="logo__item__inner" transform="translate(114.953125 59.12687082046381) scale(1 1) rotate(0 0 0)">
                    <text dy="" dominant-baseline="auto" alignment-baseline="auto" font-family="'Montserrat-Bold'" font-size="32px" fill="#B2D4E6" letter-spacing="0" font-weight="normal" font-style="normal">Open Whistleblowing</text>
                </g>
            </g><g id="logo__item--logo_0" class="logo__item">
    <g class="logo__item__inner" transform="translate(-9.093621988689279 -11) scale(1.323436905222281 1.323436905222281) rotate(0 0 0)">
        
<g>
	<path fill-rule="evenodd" clip-rule="evenodd" fill="#B2D4E6" d="M27.222,24.923C14.369,37.787,14.28,58.587,26.94,71.568   c0.102,0.106,0.195,0.195,0.282,0.293L21.479,77.6c-0.064-0.079-0.146-0.156-0.22-0.225C5.36,61.223,5.433,35.23,21.479,19.184   L27.222,24.923z"></path>
	<path fill-rule="evenodd" clip-rule="evenodd" fill="#A3C3D5" d="M50.691,64.766c9.038,0,16.373-7.331,16.373-16.38H50.691V64.766z   "></path>
	<path fill-rule="evenodd" clip-rule="evenodd" fill="#2A4F76" d="M50.691,48.386h10.517V48.25   c-0.059-5.729-4.743-10.385-10.517-10.385V48.386z"></path>
	<path fill-rule="evenodd" clip-rule="evenodd" fill="#2A4F76" d="M40.169,48.386h10.434h0.088v10.513h-0.063   C44.85,58.88,40.169,54.174,40.169,48.386"></path>
	<path fill-rule="evenodd" clip-rule="evenodd" fill="#A3C3D5" d="M50.691,32.028h-0.195c-8.917,0.107-16.114,7.33-16.168,16.26   v0.108H50.55h0.142V32.028z"></path>
	<path fill-rule="evenodd" clip-rule="evenodd" fill="#427896" d="M50.691,85.456c-20.458,0-37.055-16.591-37.055-37.07h17.86   c0,10.601,8.604,19.189,19.194,19.189V85.456z"></path>
	<path fill-rule="evenodd" clip-rule="evenodd" fill="#B2D4E6" d="M79.899,77.6l-5.744-5.759l0.142-0.127   c12.814-12.971,12.771-33.878-0.142-46.791l5.744-5.739c16.114,16.114,16.134,42.234,0.054,58.357L79.899,77.6z"></path>
	<path fill-rule="evenodd" clip-rule="evenodd" fill="#427896" d="M50.691,11.327c0.107,0,0.189,0,0.298,0   c20.297,0.176,36.724,16.676,36.767,37.011v0.048H69.891V48.28c-0.068-10.463-8.517-18.955-18.961-19.087h-0.238V11.327z"></path>
</g>

    </g>
</g><g id="logo__item--tagline_1" class="logo__item">
    <g class="logo__item__inner" transform="translate(188 85) scale(1 1) rotate(0 0 0)">
        <text dy="" dominant-baseline="auto" alignment-baseline="auto" font-family="'OpenSans'" font-size="18px" fill="#000000" letter-spacing="1" font-weight="normal" font-style="normal">Free Whistleblowing software</text>
    </g>
</g></svg>