<?xml version="1.0" encoding="UTF-8" standalone="no"?>
<!-- Created with Inkscape (http://www.inkscape.org/) -->

<svg
   xmlns:dc="http://purl.org/dc/elements/1.1/"
   xmlns:cc="http://creativecommons.org/ns#"
   xmlns:rdf="http://www.w3.org/1999/02/22-rdf-syntax-ns#"
   xmlns:svg="http://www.w3.org/2000/svg"
   xmlns="http://www.w3.org/2000/svg"
   xmlns:sodipodi="http://sodipodi.sourceforge.net/DTD/sodipodi-0.dtd"
   xmlns:inkscape="http://www.inkscape.org/namespaces/inkscape"
   width="456.78525"
   height="147.636"
   id="svg2"
   version="1.1"
   inkscape:version="0.48.4 r9939"
   sodipodi:docname="hermes.svg">
  <defs
     id="defs4" />
  <sodipodi:namedview
     id="base"
     pagecolor="#ffffff"
     bordercolor="#666666"
     borderopacity="1.0"
     inkscape:pageopacity="1"
     inkscape:pageshadow="2"
     inkscape:zoom="0.35"
     inkscape:cx="228.39262"
     inkscape:cy="73.818002"
     inkscape:document-units="px"
     inkscape:current-layer="layer1"
     showgrid="false"
     fit-margin-top="0"
     fit-margin-left="0"
     fit-margin-right="0"
     fit-margin-bottom="0"
     inkscape:window-width="472"
     inkscape:window-height="383"
     inkscape:window-x="10"
     inkscape:window-y="34"
     inkscape:window-maximized="0" />
  <metadata
     id="metadata7">
    <rdf:RDF>
      <cc:Work
         rdf:about="">
        <dc:format>image/svg+xml</dc:format>
        <dc:type
           rdf:resource="http://purl.org/dc/dcmitype/StillImage" />
        <dc:title />
      </cc:Work>
    </rdf:RDF>
  </metadata>
  <g
     inkscape:label="Layer 1"
     inkscape:groupmode="layer"
     id="layer1"
     transform="translate(-146.60738,-458.54418)">
    <g
       transform="matrix(1.25,0,0,-1.25,-101.64462,691.79006)"
       id="g3594">
      <path
         d="m 287.0005,86.0811 37.302,0 0,24.063 -34.381,0 0,15.414 31.975,0 0,24.064 -31.975,0 0,12.813 34.381,0 0,24.063 -37.302,0 0,0.051 -12.689,0 -24.401,-49.63 13.663,0 -4.872,-17.484 0.28,0 c 5.613,0 10.164,-4.551 10.164,-10.165 l 0,-0.92 c 0,-5.615 -4.551,-10.165 -10.164,-10.165 l -4.02,0 c -0.727,0 -1.428,0.102 -2.112,0.249 l -3.443,-12.353 37.241,0 0.353,0 z"
         style="fill:#3573bd;fill-opacity:1;fill-rule:nonzero;stroke:none"
         id="path26"
         inkscape:connector-curvature="0" />
      <path
         d="m 205.0776,75.6895 c -0.168,0.268 -0.373,0.49 -0.615,0.671 -0.242,0.181 -0.509,0.317 -0.8,0.412 -0.291,0.095 -0.596,0.142 -0.916,0.142 -0.582,0 -1.082,-0.112 -1.501,-0.332 -0.418,-0.222 -0.76,-0.515 -1.026,-0.879 -0.267,-0.366 -0.464,-0.778 -0.591,-1.237 -0.127,-0.46 -0.191,-0.931 -0.191,-1.415 0,-0.475 0.064,-0.945 0.191,-1.408 0.127,-0.464 0.324,-0.878 0.591,-1.243 0.266,-0.364 0.608,-0.657 1.026,-0.879 0.419,-0.221 0.919,-0.332 1.501,-0.332 0.41,0 0.779,0.074 1.107,0.222 0.328,0.147 0.611,0.348 0.849,0.602 0.238,0.254 0.43,0.551 0.578,0.892 0.148,0.341 0.242,0.708 0.283,1.1 l 0.836,0 c -0.057,-0.541 -0.184,-1.029 -0.381,-1.462 -0.197,-0.436 -0.451,-0.805 -0.763,-1.108 -0.311,-0.303 -0.678,-0.537 -1.1,-0.701 -0.423,-0.164 -0.892,-0.246 -1.409,-0.246 -0.689,0 -1.294,0.125 -1.814,0.375 -0.521,0.25 -0.953,0.584 -1.298,1.003 -0.344,0.418 -0.602,0.901 -0.775,1.451 -0.172,0.55 -0.258,1.128 -0.258,1.734 0,0.607 0.086,1.185 0.258,1.735 0.173,0.549 0.431,1.035 0.775,1.458 0.345,0.422 0.777,0.758 1.298,1.008 0.52,0.25 1.125,0.375 1.814,0.375 0.418,0 0.826,-0.061 1.224,-0.184 0.398,-0.123 0.758,-0.307 1.083,-0.548 0.323,-0.242 0.594,-0.539 0.811,-0.892 0.217,-0.353 0.355,-0.758 0.412,-1.217 l -0.836,0 c -0.074,0.336 -0.195,0.637 -0.363,0.903"
         style="fill:#414345;fill-opacity:1;fill-rule:nonzero;stroke:none"
         id="path30"
         inkscape:connector-curvature="0" />
      <path
         d="m 213.7432,77.4434 0,-0.714 -5.228,0 0,-3.173 4.895,0 0,-0.714 -4.895,0 0,-3.468 5.29,0 0,-0.714 -6.126,0 0,8.783 6.064,0 z"
         style="fill:#414345;fill-opacity:1;fill-rule:nonzero;stroke:none"
         id="path34"
         inkscape:connector-curvature="0" />
      <path
         d="m 215.8955,77.4434 5.117,-7.43 0.025,0 0,7.43 0.836,0 0,-8.783 -0.935,0 -5.117,7.429 -0.025,0 0,-7.429 -0.836,0 0,8.783 0.935,0 z"
         style="fill:#414345;fill-opacity:1;fill-rule:nonzero;stroke:none"
         id="path38"
         inkscape:connector-curvature="0" />
      <path
         d="m 229.647,77.4434 0,-0.714 -3.063,0 0,-8.069 -0.836,0 0,8.069 -3.051,0 0,0.714 6.95,0 z"
         style="fill:#414345;fill-opacity:1;fill-rule:nonzero;stroke:none"
         id="path42"
         inkscape:connector-curvature="0" />
      <path
         d="m 234.4316,73.2734 c 0.254,0 0.496,0.039 0.726,0.117 0.229,0.077 0.43,0.19 0.603,0.338 0.171,0.148 0.309,0.326 0.411,0.535 0.103,0.209 0.154,0.449 0.154,0.719 0,0.541 -0.156,0.968 -0.467,1.279 -0.312,0.313 -0.787,0.468 -1.427,0.468 l -3.124,0 0,-3.456 3.124,0 z m 0.062,4.17 c 0.36,0 0.703,-0.046 1.026,-0.136 0.325,-0.091 0.607,-0.227 0.85,-0.412 0.241,-0.184 0.434,-0.423 0.577,-0.714 0.144,-0.291 0.215,-0.633 0.215,-1.026 0,-0.558 -0.143,-1.042 -0.43,-1.452 -0.287,-0.41 -0.713,-0.672 -1.279,-0.787 l 0,-0.025 c 0.287,-0.041 0.524,-0.116 0.713,-0.227 0.189,-0.111 0.343,-0.252 0.462,-0.424 0.118,-0.172 0.204,-0.371 0.258,-0.597 0.053,-0.225 0.088,-0.47 0.105,-0.731 0.007,-0.149 0.016,-0.328 0.024,-0.542 0.008,-0.213 0.024,-0.429 0.049,-0.646 0.025,-0.217 0.064,-0.422 0.117,-0.615 0.053,-0.192 0.125,-0.342 0.215,-0.449 l -0.922,0 c -0.049,0.082 -0.088,0.183 -0.117,0.301 -0.029,0.119 -0.049,0.242 -0.062,0.37 -0.012,0.127 -0.022,0.252 -0.03,0.375 -0.009,0.123 -0.017,0.229 -0.025,0.319 -0.016,0.312 -0.043,0.621 -0.08,0.93 -0.037,0.306 -0.115,0.582 -0.233,0.824 -0.12,0.241 -0.292,0.435 -0.517,0.584 -0.226,0.147 -0.535,0.213 -0.929,0.196 l -3.173,0 0,-3.899 -0.836,0 0,8.783 4.022,0 z"
         style="fill:#414345;fill-opacity:1;fill-rule:nonzero;stroke:none"
         id="path46"
         inkscape:connector-curvature="0" />
      <path
         d="m 239.2349,71.6436 c 0.127,-0.464 0.324,-0.878 0.59,-1.243 0.267,-0.364 0.609,-0.657 1.027,-0.879 0.419,-0.221 0.919,-0.332 1.501,-0.332 0.582,0 1.08,0.111 1.494,0.332 0.414,0.222 0.755,0.515 1.021,0.879 0.267,0.365 0.464,0.779 0.591,1.243 0.127,0.463 0.191,0.933 0.191,1.408 0,0.484 -0.064,0.955 -0.191,1.415 -0.127,0.459 -0.324,0.871 -0.591,1.237 -0.266,0.364 -0.607,0.657 -1.021,0.878 -0.414,0.221 -0.912,0.333 -1.494,0.333 -0.582,0 -1.082,-0.112 -1.501,-0.333 -0.418,-0.221 -0.76,-0.514 -1.027,-0.878 -0.266,-0.366 -0.463,-0.778 -0.59,-1.237 -0.127,-0.46 -0.191,-0.931 -0.191,-1.415 0,-0.475 0.064,-0.945 0.191,-1.408 m -0.769,3.143 c 0.172,0.549 0.431,1.035 0.775,1.458 0.345,0.421 0.777,0.757 1.298,1.007 0.52,0.25 1.125,0.375 1.814,0.375 0.689,0 1.292,-0.125 1.808,-0.375 0.517,-0.25 0.947,-0.586 1.292,-1.007 0.344,-0.423 0.602,-0.909 0.775,-1.458 0.172,-0.55 0.258,-1.128 0.258,-1.735 0,-0.606 -0.086,-1.184 -0.258,-1.734 -0.173,-0.55 -0.431,-1.033 -0.775,-1.451 -0.345,-0.419 -0.775,-0.753 -1.292,-1.003 -0.516,-0.25 -1.119,-0.375 -1.808,-0.375 -0.689,0 -1.294,0.125 -1.814,0.375 -0.521,0.25 -0.953,0.584 -1.298,1.003 -0.344,0.418 -0.603,0.901 -0.775,1.451 -0.172,0.55 -0.258,1.128 -0.258,1.734 0,0.607 0.086,1.185 0.258,1.735"
         style="fill:#414345;fill-opacity:1;fill-rule:nonzero;stroke:none"
         id="path50"
         inkscape:connector-curvature="0" />
      <path
         d="m 251.8115,70.4199 c 0.147,-0.304 0.351,-0.546 0.609,-0.727 0.258,-0.179 0.563,-0.308 0.916,-0.386 0.353,-0.078 0.73,-0.117 1.132,-0.117 0.229,0 0.48,0.033 0.75,0.098 0.271,0.066 0.523,0.17 0.757,0.314 0.233,0.143 0.428,0.328 0.584,0.553 0.155,0.226 0.233,0.498 0.233,0.818 0,0.246 -0.055,0.459 -0.166,0.64 -0.11,0.18 -0.254,0.332 -0.43,0.455 -0.177,0.123 -0.371,0.223 -0.584,0.301 -0.214,0.078 -0.423,0.142 -0.628,0.191 l -1.955,0.479 c -0.255,0.067 -0.503,0.149 -0.744,0.246 -0.243,0.099 -0.453,0.231 -0.634,0.395 -0.18,0.163 -0.326,0.364 -0.437,0.601 -0.11,0.239 -0.166,0.53 -0.166,0.874 0,0.213 0.041,0.463 0.123,0.75 0.082,0.287 0.236,0.558 0.462,0.812 0.225,0.254 0.535,0.47 0.928,0.646 0.394,0.176 0.898,0.264 1.513,0.264 0.435,0 0.849,-0.057 1.242,-0.172 0.394,-0.115 0.739,-0.287 1.034,-0.516 0.295,-0.23 0.53,-0.515 0.707,-0.855 0.176,-0.341 0.264,-0.736 0.264,-1.187 l -0.836,0 c -0.016,0.336 -0.092,0.628 -0.228,0.879 -0.135,0.25 -0.311,0.459 -0.529,0.627 -0.217,0.168 -0.467,0.296 -0.75,0.382 -0.283,0.086 -0.58,0.129 -0.892,0.129 -0.287,0 -0.564,-0.031 -0.83,-0.092 -0.266,-0.062 -0.5,-0.16 -0.701,-0.296 -0.201,-0.135 -0.363,-0.313 -0.486,-0.535 -0.123,-0.221 -0.184,-0.496 -0.184,-0.823 0,-0.205 0.034,-0.385 0.104,-0.535 0.07,-0.152 0.166,-0.281 0.289,-0.389 0.123,-0.105 0.265,-0.191 0.425,-0.258 0.16,-0.065 0.33,-0.119 0.51,-0.16 l 2.14,-0.528 c 0.312,-0.082 0.605,-0.183 0.88,-0.302 0.274,-0.119 0.516,-0.265 0.725,-0.442 0.209,-0.177 0.374,-0.392 0.493,-0.646 0.118,-0.254 0.178,-0.562 0.178,-0.923 0,-0.098 -0.01,-0.229 -0.031,-0.393 -0.02,-0.164 -0.07,-0.338 -0.147,-0.524 -0.078,-0.183 -0.189,-0.371 -0.332,-0.558 -0.144,-0.19 -0.341,-0.36 -0.591,-0.511 -0.25,-0.151 -0.56,-0.274 -0.928,-0.369 -0.37,-0.095 -0.812,-0.142 -1.329,-0.142 -0.517,0 -0.996,0.06 -1.439,0.179 -0.443,0.118 -0.82,0.302 -1.132,0.548 -0.311,0.245 -0.551,0.56 -0.719,0.946 -0.169,0.386 -0.24,0.849 -0.215,1.39 l 0.836,0 c -0.008,-0.451 0.062,-0.828 0.209,-1.131"
         style="fill:#414345;fill-opacity:1;fill-rule:nonzero;stroke:none"
         id="path54"
         inkscape:connector-curvature="0" />
      <path
         d="m 264.9727,77.4434 0,-0.714 -3.063,0 0,-8.069 -0.836,0 0,8.069 -3.051,0 0,0.714 6.95,0 z"
         style="fill:#414345;fill-opacity:1;fill-rule:nonzero;stroke:none"
         id="path58"
         inkscape:connector-curvature="0" />
      <path
         d="m 266.5469,77.4434 0,-5.438 c 0,-0.507 0.058,-0.94 0.172,-1.296 0.115,-0.358 0.283,-0.649 0.505,-0.873 0.221,-0.227 0.491,-0.391 0.811,-0.493 0.32,-0.103 0.681,-0.154 1.083,-0.154 0.41,0 0.775,0.051 1.095,0.154 0.319,0.102 0.59,0.266 0.812,0.493 0.221,0.224 0.389,0.515 0.503,0.873 0.115,0.356 0.173,0.789 0.173,1.296 l 0,5.438 0.836,0 0,-5.621 c 0,-0.451 -0.063,-0.88 -0.19,-1.285 -0.128,-0.407 -0.328,-0.762 -0.603,-1.065 -0.275,-0.303 -0.627,-0.543 -1.058,-0.719 -0.431,-0.177 -0.953,-0.265 -1.568,-0.265 -0.607,0 -1.126,0.088 -1.556,0.265 -0.431,0.176 -0.783,0.416 -1.058,0.719 -0.275,0.303 -0.476,0.658 -0.603,1.065 -0.127,0.405 -0.19,0.834 -0.19,1.285 l 0,5.621 0.836,0 z"
         style="fill:#414345;fill-opacity:1;fill-rule:nonzero;stroke:none"
         id="path62"
         inkscape:connector-curvature="0" />
      <path
         d="m 276.8418,69.374 c 0.631,0 1.175,0.067 1.63,0.203 0.455,0.136 0.83,0.351 1.125,0.646 0.295,0.295 0.513,0.676 0.652,1.144 0.139,0.467 0.209,1.028 0.209,1.685 0,0.655 -0.07,1.218 -0.209,1.684 -0.139,0.468 -0.357,0.85 -0.652,1.145 -0.295,0.295 -0.67,0.51 -1.125,0.645 -0.455,0.136 -0.999,0.203 -1.63,0.203 l -1.783,0 0,-7.355 1.783,0 z m 0.418,8.069 c 1.337,-0.033 2.344,-0.408 3.02,-1.126 0.676,-0.717 1.015,-1.805 1.015,-3.265 0,-1.46 -0.339,-2.548 -1.015,-3.266 -0.676,-0.718 -1.683,-1.093 -3.02,-1.126 l -3.038,0 0,8.783 3.038,0 z"
         style="fill:#414345;fill-opacity:1;fill-rule:nonzero;stroke:none"
         id="path66"
         inkscape:connector-curvature="0" />
      <path
         inkscape:connector-curvature="0"
         id="path68"
         style="fill:#414345;fill-opacity:1;fill-rule:nonzero;stroke:none"
         d="m 283.545,68.66 -0.836,0 0,8.783 0.836,0 0,-8.783 z" />
      <path
         d="m 292.5112,73.1377 c 0.582,0 1.053,0.147 1.414,0.442 0.36,0.296 0.541,0.746 0.541,1.354 0,0.607 -0.181,1.058 -0.541,1.353 -0.361,0.295 -0.832,0.443 -1.414,0.443 l -2.879,0 0,-3.592 2.879,0 z m 0.185,4.306 c 0.393,0 0.75,-0.056 1.069,-0.166 0.32,-0.112 0.595,-0.276 0.824,-0.493 0.23,-0.217 0.406,-0.482 0.529,-0.793 0.123,-0.312 0.185,-0.665 0.185,-1.058 0,-0.394 -0.062,-0.746 -0.185,-1.058 -0.123,-0.311 -0.299,-0.576 -0.529,-0.794 -0.229,-0.216 -0.504,-0.381 -0.824,-0.492 -0.319,-0.109 -0.676,-0.166 -1.069,-0.166 l -3.064,0 0,-3.764 -0.836,0 0,8.784 3.9,0 z"
         style="fill:#414345;fill-opacity:1;fill-rule:nonzero;stroke:none"
         id="path72"
         inkscape:connector-curvature="0" />
      <path
         d="m 302.6094,77.4434 0,-0.714 -5.228,0 0,-3.173 4.896,0 0,-0.714 -4.896,0 0,-3.468 5.289,0 0,-0.714 -6.125,0 0,8.783 6.064,0 z"
         style="fill:#414345;fill-opacity:1;fill-rule:nonzero;stroke:none"
         id="path76"
         inkscape:connector-curvature="0" />
      <path
         d="m 307.8008,73.2734 c 0.254,0 0.494,0.039 0.725,0.117 0.23,0.077 0.429,0.19 0.603,0.338 0.172,0.148 0.309,0.326 0.412,0.535 0.102,0.209 0.153,0.449 0.153,0.719 0,0.541 -0.155,0.968 -0.467,1.279 -0.313,0.313 -0.787,0.468 -1.426,0.468 l -3.125,0 0,-3.456 3.125,0 z m 0.061,4.17 c 0.361,0 0.703,-0.046 1.027,-0.136 0.324,-0.091 0.605,-0.227 0.848,-0.412 0.242,-0.184 0.435,-0.423 0.578,-0.714 0.144,-0.291 0.216,-0.633 0.216,-1.026 0,-0.558 -0.144,-1.042 -0.431,-1.452 -0.287,-0.41 -0.713,-0.672 -1.279,-0.787 l 0,-0.025 c 0.287,-0.041 0.525,-0.116 0.712,-0.227 0.19,-0.111 0.344,-0.252 0.463,-0.424 0.118,-0.172 0.205,-0.371 0.258,-0.597 0.053,-0.225 0.088,-0.47 0.104,-0.731 0.009,-0.149 0.017,-0.328 0.025,-0.542 0.008,-0.213 0.025,-0.429 0.049,-0.646 0.025,-0.217 0.064,-0.422 0.117,-0.615 0.053,-0.192 0.125,-0.342 0.215,-0.449 l -0.922,0 c -0.049,0.082 -0.088,0.183 -0.117,0.301 -0.029,0.119 -0.049,0.242 -0.061,0.37 -0.013,0.127 -0.023,0.252 -0.031,0.375 -0.008,0.123 -0.018,0.229 -0.025,0.319 -0.016,0.312 -0.043,0.621 -0.08,0.93 -0.038,0.306 -0.116,0.582 -0.233,0.824 -0.119,0.241 -0.291,0.435 -0.517,0.584 -0.225,0.147 -0.536,0.213 -0.928,0.196 l -3.174,0 0,-3.899 -0.836,0 0,8.783 4.022,0 z"
         style="fill:#414345;fill-opacity:1;fill-rule:nonzero;stroke:none"
         id="path80"
         inkscape:connector-curvature="0" />
      <path
         d="m 316.2988,77.4434 0,-8.069 4.92,0 0,-0.714 -5.756,0 0,8.783 0.836,0 z"
         style="fill:#414345;fill-opacity:1;fill-rule:nonzero;stroke:none"
         id="path84"
         inkscape:connector-curvature="0" />
      <path
         d="m 326.7656,72.1045 -1.697,4.502 -1.76,-4.502 3.457,0 z m -1.193,5.339 3.443,-8.783 -0.896,0 -1.071,2.73 -3.998,0 -1.058,-2.73 -0.885,0 3.529,8.783 0.936,0 z"
         style="fill:#414345;fill-opacity:1;fill-rule:nonzero;stroke:none"
         id="path88"
         inkscape:connector-curvature="0" />
      <path
         d="m 339.25,77.4434 0,-0.714 -3.063,0 0,-8.069 -0.837,0 0,8.069 -3.049,0 0,0.714 6.949,0 z"
         style="fill:#414345;fill-opacity:1;fill-rule:nonzero;stroke:none"
         id="path92"
         inkscape:connector-curvature="0" />
      <path
         d="m 344.0352,73.2734 c 0.254,0 0.494,0.039 0.725,0.117 0.23,0.077 0.429,0.19 0.603,0.338 0.172,0.148 0.309,0.326 0.412,0.535 0.102,0.209 0.153,0.449 0.153,0.719 0,0.541 -0.155,0.968 -0.467,1.279 -0.313,0.313 -0.787,0.468 -1.426,0.468 l -3.125,0 0,-3.456 3.125,0 z m 0.061,4.17 c 0.361,0 0.703,-0.046 1.027,-0.136 0.324,-0.091 0.605,-0.227 0.848,-0.412 0.242,-0.184 0.435,-0.423 0.578,-0.714 0.144,-0.291 0.216,-0.633 0.216,-1.026 0,-0.558 -0.144,-1.042 -0.431,-1.452 -0.287,-0.41 -0.713,-0.672 -1.279,-0.787 l 0,-0.025 c 0.287,-0.041 0.525,-0.116 0.712,-0.227 0.19,-0.111 0.344,-0.252 0.463,-0.424 0.118,-0.172 0.205,-0.371 0.258,-0.597 0.053,-0.225 0.088,-0.47 0.104,-0.731 0.009,-0.149 0.017,-0.328 0.025,-0.542 0.008,-0.213 0.025,-0.429 0.049,-0.646 0.025,-0.217 0.064,-0.422 0.117,-0.615 0.053,-0.192 0.125,-0.342 0.215,-0.449 l -0.922,0 c -0.049,0.082 -0.088,0.183 -0.117,0.301 -0.029,0.119 -0.049,0.242 -0.061,0.37 -0.013,0.127 -0.023,0.252 -0.031,0.375 -0.008,0.123 -0.018,0.229 -0.025,0.319 -0.016,0.312 -0.043,0.621 -0.08,0.93 -0.038,0.306 -0.116,0.582 -0.233,0.824 -0.119,0.241 -0.291,0.435 -0.517,0.584 -0.225,0.147 -0.536,0.213 -0.928,0.196 l -3.174,0 0,-3.899 -0.836,0 0,8.783 4.022,0 z"
         style="fill:#414345;fill-opacity:1;fill-rule:nonzero;stroke:none"
         id="path96"
         inkscape:connector-curvature="0" />
      <path
         d="m 352.9766,72.1045 -1.697,4.502 -1.76,-4.502 3.457,0 z m -1.193,5.339 3.443,-8.783 -0.896,0 -1.071,2.73 -3.998,0 -1.058,-2.73 -0.885,0 3.529,8.783 0.936,0 z"
         style="fill:#414345;fill-opacity:1;fill-rule:nonzero;stroke:none"
         id="path100"
         inkscape:connector-curvature="0" />
      <path
         d="m 356.6289,70.4199 c 0.148,-0.304 0.352,-0.546 0.609,-0.727 0.258,-0.179 0.565,-0.308 0.916,-0.386 0.354,-0.078 0.731,-0.117 1.133,-0.117 0.229,0 0.479,0.033 0.75,0.098 0.27,0.066 0.522,0.17 0.756,0.314 0.234,0.143 0.428,0.328 0.584,0.553 0.156,0.226 0.234,0.498 0.234,0.818 0,0.246 -0.056,0.459 -0.166,0.64 -0.111,0.18 -0.253,0.332 -0.431,0.455 -0.176,0.123 -0.371,0.223 -0.584,0.301 -0.213,0.078 -0.422,0.142 -0.627,0.191 l -1.955,0.479 c -0.254,0.067 -0.502,0.149 -0.744,0.246 -0.243,0.099 -0.454,0.231 -0.635,0.395 -0.18,0.163 -0.324,0.364 -0.436,0.601 -0.111,0.239 -0.166,0.53 -0.166,0.874 0,0.213 0.041,0.463 0.123,0.75 0.082,0.287 0.235,0.558 0.461,0.812 0.225,0.254 0.535,0.47 0.928,0.646 0.395,0.176 0.898,0.264 1.514,0.264 0.435,0 0.849,-0.057 1.242,-0.172 0.394,-0.115 0.738,-0.287 1.033,-0.516 0.295,-0.23 0.531,-0.515 0.707,-0.855 0.176,-0.341 0.266,-0.736 0.266,-1.187 l -0.838,0 c -0.016,0.336 -0.092,0.628 -0.227,0.879 -0.134,0.25 -0.312,0.459 -0.529,0.627 -0.217,0.168 -0.467,0.296 -0.75,0.382 -0.283,0.086 -0.58,0.129 -0.893,0.129 -0.287,0 -0.562,-0.031 -0.83,-0.092 -0.265,-0.062 -0.5,-0.16 -0.701,-0.296 -0.201,-0.135 -0.363,-0.313 -0.484,-0.535 -0.123,-0.221 -0.186,-0.496 -0.186,-0.823 0,-0.205 0.035,-0.385 0.106,-0.535 0.068,-0.152 0.166,-0.281 0.289,-0.389 0.123,-0.105 0.263,-0.191 0.424,-0.258 0.16,-0.065 0.33,-0.119 0.509,-0.16 l 2.141,-0.528 c 0.311,-0.082 0.605,-0.183 0.879,-0.302 0.275,-0.119 0.517,-0.265 0.726,-0.442 0.209,-0.177 0.373,-0.392 0.493,-0.646 0.119,-0.254 0.177,-0.562 0.177,-0.923 0,-0.098 -0.009,-0.229 -0.031,-0.393 -0.019,-0.164 -0.068,-0.338 -0.146,-0.524 -0.078,-0.183 -0.19,-0.371 -0.332,-0.558 -0.145,-0.19 -0.342,-0.36 -0.592,-0.511 -0.25,-0.151 -0.559,-0.274 -0.928,-0.369 -0.369,-0.095 -0.812,-0.142 -1.328,-0.142 -0.518,0 -0.996,0.06 -1.44,0.179 -0.443,0.118 -0.82,0.302 -1.13,0.548 -0.313,0.245 -0.553,0.56 -0.721,0.946 -0.168,0.386 -0.24,0.849 -0.215,1.39 l 0.836,0 c -0.008,-0.451 0.063,-0.828 0.209,-1.131"
         style="fill:#414345;fill-opacity:1;fill-rule:nonzero;stroke:none"
         id="path104"
         inkscape:connector-curvature="0" />
      <path
         d="m 367.4902,73.1377 c 0.582,0 1.053,0.147 1.414,0.442 0.361,0.296 0.541,0.746 0.541,1.354 0,0.607 -0.18,1.058 -0.541,1.353 -0.361,0.295 -0.832,0.443 -1.414,0.443 l -2.879,0 0,-3.592 2.879,0 z m 0.186,4.306 c 0.392,0 0.75,-0.056 1.068,-0.166 0.32,-0.112 0.596,-0.276 0.824,-0.493 0.231,-0.217 0.406,-0.482 0.529,-0.793 0.123,-0.312 0.186,-0.665 0.186,-1.058 0,-0.394 -0.063,-0.746 -0.186,-1.058 -0.123,-0.311 -0.298,-0.576 -0.529,-0.794 -0.228,-0.216 -0.504,-0.381 -0.824,-0.492 -0.318,-0.109 -0.676,-0.166 -1.068,-0.166 l -3.065,0 0,-3.764 -0.836,0 0,8.784 3.901,0 z"
         style="fill:#414345;fill-opacity:1;fill-rule:nonzero;stroke:none"
         id="path108"
         inkscape:connector-curvature="0" />
      <path
         d="m 375.3125,72.1045 -1.697,4.502 -1.758,-4.502 3.455,0 z m -1.193,5.339 3.445,-8.783 -0.898,0 -1.071,2.73 -3.998,0 -1.056,-2.73 -0.887,0 3.531,8.783 0.934,0 z"
         style="fill:#414345;fill-opacity:1;fill-rule:nonzero;stroke:none"
         id="path112"
         inkscape:connector-curvature="0" />
      <path
         d="m 382.3242,73.2734 c 0.254,0 0.496,0.039 0.727,0.117 0.228,0.077 0.429,0.19 0.601,0.338 0.172,0.148 0.311,0.326 0.412,0.535 0.104,0.209 0.155,0.449 0.155,0.719 0,0.541 -0.157,0.968 -0.467,1.279 -0.313,0.313 -0.789,0.468 -1.428,0.468 l -3.125,0 0,-3.456 3.125,0 z m 0.061,4.17 c 0.361,0 0.703,-0.046 1.027,-0.136 0.324,-0.091 0.607,-0.227 0.85,-0.412 0.242,-0.184 0.433,-0.423 0.578,-0.714 0.142,-0.291 0.214,-0.633 0.214,-1.026 0,-0.558 -0.142,-1.042 -0.429,-1.452 -0.287,-0.41 -0.715,-0.672 -1.28,-0.787 l 0,-0.025 c 0.288,-0.041 0.524,-0.116 0.713,-0.227 0.188,-0.111 0.342,-0.252 0.461,-0.424 0.119,-0.172 0.205,-0.371 0.258,-0.597 0.055,-0.225 0.088,-0.47 0.106,-0.731 0.007,-0.149 0.015,-0.328 0.025,-0.542 0.008,-0.213 0.023,-0.429 0.049,-0.646 0.023,-0.217 0.062,-0.422 0.117,-0.615 0.053,-0.192 0.123,-0.342 0.215,-0.449 l -0.924,0 c -0.049,0.082 -0.088,0.183 -0.115,0.301 -0.03,0.119 -0.051,0.242 -0.063,0.37 -0.011,0.127 -0.023,0.252 -0.031,0.375 -0.008,0.123 -0.016,0.229 -0.023,0.319 -0.018,0.312 -0.043,0.621 -0.08,0.93 -0.038,0.306 -0.116,0.582 -0.235,0.824 -0.119,0.241 -0.291,0.435 -0.515,0.584 -0.227,0.147 -0.536,0.213 -0.93,0.196 l -3.174,0 0,-3.899 -0.836,0 0,8.783 4.022,0 z"
         style="fill:#414345;fill-opacity:1;fill-rule:nonzero;stroke:none"
         id="path116"
         inkscape:connector-curvature="0" />
      <path
         d="m 392.6309,77.4434 0,-0.714 -5.227,0 0,-3.173 4.895,0 0,-0.714 -4.895,0 0,-3.468 5.29,0 0,-0.714 -6.126,0 0,8.783 6.063,0 z"
         style="fill:#414345;fill-opacity:1;fill-rule:nonzero;stroke:none"
         id="path120"
         inkscape:connector-curvature="0" />
      <path
         d="m 394.7832,77.4434 5.117,-7.43 0.026,0 0,7.43 0.836,0 0,-8.783 -0.934,0 -5.117,7.429 -0.026,0 0,-7.429 -0.836,0 0,8.783 0.934,0 z"
         style="fill:#414345;fill-opacity:1;fill-rule:nonzero;stroke:none"
         id="path124"
         inkscape:connector-curvature="0" />
      <path
         d="m 408.4121,77.4434 0,-0.738 -5.781,-7.331 5.904,0 0,-0.714 -6.838,0 0,0.738 5.781,7.331 -5.388,0 0,0.714 6.322,0 z"
         style="fill:#414345;fill-opacity:1;fill-rule:nonzero;stroke:none"
         id="path128"
         inkscape:connector-curvature="0" />
      <path
         d="m 414.2793,72.1045 -1.697,4.502 -1.758,-4.502 3.455,0 z m -1.193,5.339 3.445,-8.783 -0.898,0 -1.071,2.73 -3.998,0 -1.056,-2.73 -0.887,0 3.531,8.783 0.934,0 z"
         style="fill:#414345;fill-opacity:1;fill-rule:nonzero;stroke:none"
         id="path132"
         inkscape:connector-curvature="0" />
      <path
         d="m 426.8125,77.4434 0,-0.714 -5.227,0 0,-3.173 4.895,0 0,-0.714 -4.895,0 0,-3.468 5.29,0 0,-0.714 -6.126,0 0,8.783 6.063,0 z"
         style="fill:#414345;fill-opacity:1;fill-rule:nonzero;stroke:none"
         id="path136"
         inkscape:connector-curvature="0" />
      <path
         inkscape:connector-curvature="0"
         id="path138"
         style="fill:#414345;fill-opacity:1;fill-rule:nonzero;stroke:none"
         d="m 432.359,68.66 -0.836,0 0,8.783 0.836,0 0,-8.783 z" />
      <path
         d="m 440.2324,69.374 c 0.631,0 1.174,0.067 1.629,0.203 0.455,0.136 0.83,0.351 1.125,0.646 0.295,0.295 0.514,0.676 0.652,1.144 0.139,0.467 0.209,1.028 0.209,1.685 0,0.655 -0.07,1.218 -0.209,1.684 -0.138,0.468 -0.357,0.85 -0.652,1.145 -0.295,0.295 -0.67,0.51 -1.125,0.645 -0.455,0.136 -0.998,0.203 -1.629,0.203 l -1.785,0 0,-7.355 1.785,0 z m 0.418,8.069 c 1.336,-0.033 2.342,-0.408 3.02,-1.126 0.675,-0.717 1.013,-1.805 1.013,-3.265 0,-1.46 -0.338,-2.548 -1.013,-3.266 -0.678,-0.718 -1.684,-1.093 -3.02,-1.126 l -3.039,0 0,8.783 3.039,0 z"
         style="fill:#414345;fill-opacity:1;fill-rule:nonzero;stroke:none"
         id="path142"
         inkscape:connector-curvature="0" />
      <path
         inkscape:connector-curvature="0"
         id="path144"
         style="fill:#414345;fill-opacity:1;fill-rule:nonzero;stroke:none"
         d="m 446.936,68.66 -0.836,0 0,8.783 0.836,0 0,-8.783 z" />
      <path
         d="m 452.7285,73.2734 c 0.254,0 0.496,0.039 0.727,0.117 0.228,0.077 0.429,0.19 0.601,0.338 0.172,0.148 0.311,0.326 0.412,0.535 0.104,0.209 0.155,0.449 0.155,0.719 0,0.541 -0.157,0.968 -0.467,1.279 -0.313,0.313 -0.789,0.468 -1.428,0.468 l -3.125,0 0,-3.456 3.125,0 z m 0.061,4.17 c 0.361,0 0.703,-0.046 1.027,-0.136 0.324,-0.091 0.607,-0.227 0.85,-0.412 0.242,-0.184 0.433,-0.423 0.578,-0.714 0.142,-0.291 0.214,-0.633 0.214,-1.026 0,-0.558 -0.142,-1.042 -0.429,-1.452 -0.287,-0.41 -0.715,-0.672 -1.28,-0.787 l 0,-0.025 c 0.288,-0.041 0.524,-0.116 0.713,-0.227 0.188,-0.111 0.342,-0.252 0.461,-0.424 0.119,-0.172 0.205,-0.371 0.258,-0.597 0.055,-0.225 0.088,-0.47 0.106,-0.731 0.007,-0.149 0.015,-0.328 0.025,-0.542 0.008,-0.213 0.023,-0.429 0.049,-0.646 0.023,-0.217 0.062,-0.422 0.117,-0.615 0.053,-0.192 0.123,-0.342 0.215,-0.449 l -0.924,0 c -0.049,0.082 -0.088,0.183 -0.115,0.301 -0.03,0.119 -0.051,0.242 -0.063,0.37 -0.011,0.127 -0.023,0.252 -0.031,0.375 -0.008,0.123 -0.016,0.229 -0.023,0.319 -0.018,0.312 -0.043,0.621 -0.08,0.93 -0.038,0.306 -0.116,0.582 -0.235,0.824 -0.119,0.241 -0.291,0.435 -0.515,0.584 -0.227,0.147 -0.536,0.213 -0.93,0.196 l -3.174,0 0,-3.899 -0.836,0 0,8.783 4.022,0 z"
         style="fill:#414345;fill-opacity:1;fill-rule:nonzero;stroke:none"
         id="path148"
         inkscape:connector-curvature="0" />
      <path
         inkscape:connector-curvature="0"
         id="path150"
         style="fill:#414345;fill-opacity:1;fill-rule:nonzero;stroke:none"
         d="m 457.869,68.66 -0.836,0 0,8.783 0.836,0 0,-8.783 z" />
      <path
         d="m 465.7168,77.4434 0,-0.714 -3.063,0 0,-8.069 -0.835,0 0,8.069 -3.051,0 0,0.714 6.949,0 z"
         style="fill:#414345;fill-opacity:1;fill-rule:nonzero;stroke:none"
         id="path154"
         inkscape:connector-curvature="0" />
      <path
         d="m 472.5566,77.4434 0,-0.714 -3.063,0 0,-8.069 -0.837,0 0,8.069 -3.049,0 0,0.714 6.949,0 z"
         style="fill:#414345;fill-opacity:1;fill-rule:nonzero;stroke:none"
         id="path158"
         inkscape:connector-curvature="0" />
      <path
         inkscape:connector-curvature="0"
         id="path160"
         style="fill:#414345;fill-opacity:1;fill-rule:nonzero;stroke:none"
         d="m 474.277,68.66 -0.836,0 0,8.783 0.836,0 0,-8.783 z" />
      <path
         d="m 480.2793,77.4434 0,-5.438 c 0,-0.507 0.059,-0.94 0.172,-1.296 0.115,-0.358 0.283,-0.649 0.506,-0.873 0.22,-0.227 0.492,-0.391 0.81,-0.493 0.321,-0.103 0.682,-0.154 1.084,-0.154 0.408,0 0.774,0.051 1.094,0.154 0.32,0.102 0.59,0.266 0.813,0.493 0.22,0.224 0.388,0.515 0.503,0.873 0.116,0.356 0.172,0.789 0.172,1.296 l 0,5.438 0.836,0 0,-5.621 c 0,-0.451 -0.062,-0.88 -0.189,-1.285 -0.127,-0.407 -0.328,-0.762 -0.604,-1.065 -0.275,-0.303 -0.627,-0.543 -1.058,-0.719 -0.43,-0.177 -0.953,-0.265 -1.567,-0.265 -0.607,0 -1.127,0.088 -1.556,0.265 -0.432,0.176 -0.784,0.416 -1.059,0.719 -0.273,0.303 -0.475,0.658 -0.602,1.065 -0.126,0.405 -0.191,0.834 -0.191,1.285 l 0,5.621 0.836,0 z"
         style="fill:#414345;fill-opacity:1;fill-rule:nonzero;stroke:none"
         id="path164"
         inkscape:connector-curvature="0" />
      <path
         d="m 489.1602,77.4434 3.039,-7.7 3.025,7.7 1.231,0 0,-8.783 -0.836,0 0,7.59 -0.025,0 -3.002,-7.59 -0.787,0 -3.014,7.59 -0.024,0 0,-7.59 -0.836,0 0,8.783 1.229,0 z"
         style="fill:#414345;fill-opacity:1;fill-rule:nonzero;stroke:none"
         id="path168"
         inkscape:connector-curvature="0" />
      <path
         d="m 502.9004,72.1045 -1.697,4.502 -1.76,-4.502 3.457,0 z m -1.193,5.339 3.443,-8.783 -0.896,0 -1.071,2.73 -3.998,0 -1.058,-2.73 -0.885,0 3.529,8.783 0.936,0 z"
         style="fill:#414345;fill-opacity:1;fill-rule:nonzero;stroke:none"
         id="path172"
         inkscape:connector-curvature="0" />
      <path
         d="m 506.873,77.4434 5.117,-7.43 0.024,0 0,7.43 0.838,0 0,-8.783 -0.936,0 -5.117,7.429 -0.024,0 0,-7.429 -0.838,0 0,8.783 0.936,0 z"
         style="fill:#414345;fill-opacity:1;fill-rule:nonzero;stroke:none"
         id="path176"
         inkscape:connector-curvature="0" />
      <path
         inkscape:connector-curvature="0"
         id="path178"
         style="fill:#414345;fill-opacity:1;fill-rule:nonzero;stroke:none"
         d="m 515.508,68.66 -0.836,0 0,8.783 0.836,0 0,-8.783 z" />
      <path
         inkscape:connector-curvature="0"
         id="path180"
         style="fill:#414345;fill-opacity:1;fill-rule:nonzero;stroke:none"
         d="m 521.656,68.66 -0.836,0 0,8.783 0.836,0 0,-8.783 z" />
      <path
         d="m 524.4121,77.4434 5.117,-7.43 0.024,0 0,7.43 0.838,0 0,-8.783 -0.936,0 -5.117,7.429 -0.024,0 0,-7.429 -0.838,0 0,8.783 0.936,0 z"
         style="fill:#414345;fill-opacity:1;fill-rule:nonzero;stroke:none"
         id="path184"
         inkscape:connector-curvature="0" />
      <path
         d="m 539.5293,73.2734 c 0.254,0 0.494,0.039 0.725,0.117 0.23,0.077 0.429,0.19 0.603,0.338 0.172,0.148 0.309,0.326 0.412,0.535 0.102,0.209 0.153,0.449 0.153,0.719 0,0.541 -0.155,0.968 -0.467,1.279 -0.313,0.313 -0.787,0.468 -1.426,0.468 l -3.125,0 0,-3.456 3.125,0 z m 0.061,4.17 c 0.361,0 0.703,-0.046 1.027,-0.136 0.324,-0.091 0.605,-0.227 0.848,-0.412 0.242,-0.184 0.435,-0.423 0.578,-0.714 0.144,-0.291 0.216,-0.633 0.216,-1.026 0,-0.558 -0.144,-1.042 -0.431,-1.452 -0.287,-0.41 -0.713,-0.672 -1.279,-0.787 l 0,-0.025 c 0.287,-0.041 0.525,-0.116 0.712,-0.227 0.19,-0.111 0.344,-0.252 0.463,-0.424 0.118,-0.172 0.205,-0.371 0.258,-0.597 0.053,-0.225 0.088,-0.47 0.104,-0.731 0.009,-0.149 0.017,-0.328 0.025,-0.542 0.008,-0.213 0.025,-0.429 0.049,-0.646 0.025,-0.217 0.064,-0.422 0.117,-0.615 0.053,-0.192 0.125,-0.342 0.215,-0.449 l -0.922,0 c -0.049,0.082 -0.088,0.183 -0.117,0.301 -0.029,0.119 -0.049,0.242 -0.061,0.37 -0.013,0.127 -0.023,0.252 -0.031,0.375 -0.008,0.123 -0.018,0.229 -0.025,0.319 -0.016,0.312 -0.043,0.621 -0.08,0.93 -0.038,0.306 -0.116,0.582 -0.233,0.824 -0.119,0.241 -0.291,0.435 -0.517,0.584 -0.225,0.147 -0.536,0.213 -0.928,0.196 l -3.174,0 0,-3.899 -0.836,0 0,8.783 4.022,0 z"
         style="fill:#414345;fill-opacity:1;fill-rule:nonzero;stroke:none"
         id="path188"
         inkscape:connector-curvature="0" />
      <path
         d="m 549.8359,77.4434 0,-0.714 -5.229,0 0,-3.173 4.897,0 0,-0.714 -4.897,0 0,-3.468 5.29,0 0,-0.714 -6.125,0 0,8.783 6.064,0 z"
         style="fill:#414345;fill-opacity:1;fill-rule:nonzero;stroke:none"
         id="path192"
         inkscape:connector-curvature="0" />
      <path
         d="m 557.0801,77.4434 0,-0.714 -3.063,0 0,-8.069 -0.835,0 0,8.069 -3.051,0 0,0.714 6.949,0 z"
         style="fill:#414345;fill-opacity:1;fill-rule:nonzero;stroke:none"
         id="path196"
         inkscape:connector-curvature="0" />
      <path
         d="m 563.9688,77.4434 0,-0.714 -5.229,0 0,-3.173 4.897,0 0,-0.714 -4.897,0 0,-3.468 5.29,0 0,-0.714 -6.125,0 0,8.783 6.064,0 z"
         style="fill:#414345;fill-opacity:1;fill-rule:nonzero;stroke:none"
         id="path200"
         inkscape:connector-curvature="0" />
      <path
         inkscape:connector-curvature="0"
         id="path216"
         style="opacity:0.80000299;fill:#3573bd;fill-opacity:1;fill-rule:nonzero;stroke:none"
         d="m 356.6055,141.4277 1.822,0 c 3.121,0 5.721,1.191 7.803,3.577 2.082,2.383 3.121,5.418 3.121,9.106 0,7.499 -3.924,11.25 -11.771,11.25 l -0.975,0 0,-23.933 z m 44.289,-55.347 -29.332,0 -13.396,35.769 c -0.129,0.608 -0.358,1.409 -0.682,2.407 -0.326,0.996 -0.729,2.19 -1.203,3.577 l 0.193,-6.634 0,-35.119 -26.988,0 0,100.417 27.769,0 c 12.227,0 21.375,-2.407 27.446,-7.219 7.717,-6.158 11.576,-14.916 11.576,-26.275 0,-12.14 -5.182,-20.53 -15.543,-25.17 l 20.16,-41.753 z" />
      <path
         inkscape:connector-curvature="0"
         id="path232"
         style="opacity:0.60000598;fill:#3573bd;fill-opacity:1;fill-rule:nonzero;stroke:none"
         d="m 476.7852,86.0811 -27.445,0 -1.106,45.786 -0.881,18.275 c -0.316,-3.512 -0.679,-6.862 -1.082,-10.047 -0.408,-3.187 -0.906,-6.279 -1.49,-9.27 l -8.871,-44.744 -22.535,0 -7.285,44.811 c -0.434,2.601 -1.02,7.065 -1.756,13.396 -0.09,0.953 -0.283,2.904 -0.584,5.854 l -0.653,-18.536 -2.406,-45.525 -28.875,0 11.705,100.417 33.754,0 5.66,-33.819 c 0.477,-2.777 0.899,-5.789 1.268,-9.04 0.365,-3.253 0.705,-6.787 1.008,-10.601 0.551,6.373 1.314,12.074 2.291,17.104 l 6.748,36.356 32.781,0 9.754,-100.417 z" />
      <path
         inkscape:connector-curvature="0"
         id="path248"
         style="opacity:0.39999402;fill:#3573bd;fill-opacity:1;fill-rule:nonzero;stroke:none"
         d="m 459.7578,86.0811 0,100.417 61.506,0 0,-24.063 -34.385,0 0,-12.813 31.977,0 0,-24.064 -31.977,0 0,-15.414 34.385,0 0,-24.063 -61.506,0 z" />
      <path
         inkscape:connector-curvature="0"
         id="path264"
         style="opacity:0.22000098;fill:#3573bd;fill-opacity:1;fill-rule:nonzero;stroke:none"
         d="m 538.7227,147.0557 c 3.791,-1.537 7.197,-3.094 10.223,-4.672 3.023,-1.582 5.621,-3.477 7.785,-5.689 2.17,-2.213 3.84,-4.874 5.013,-7.989 1.17,-3.115 1.76,-6.884 1.76,-11.307 0,-4.786 -0.836,-9.097 -2.508,-12.932 -1.668,-3.84 -4.128,-7.134 -7.378,-9.886 -3.25,-2.754 -7.245,-4.876 -11.985,-6.365 -4.74,-1.489 -10.18,-2.234 -16.318,-2.234 -5.598,0 -10.541,0.453 -14.828,1.354 -4.289,0.903 -8.914,2.302 -13.881,4.198 0.361,3.159 0.994,6.52 1.898,10.088 0.901,3.566 1.985,7.2 3.25,10.903 8.305,-3.614 15.526,-5.417 21.666,-5.417 4.604,0 8.192,0.698 10.766,2.097 2.572,1.399 3.857,3.814 3.857,7.247 0,1.442 -0.269,2.684 -0.81,3.723 -0.543,1.036 -1.264,1.916 -2.168,2.642 -0.903,0.719 -1.916,1.331 -3.045,1.827 -1.133,0.494 -2.281,0.969 -3.453,1.422 l -7.584,2.844 c -3.25,1.171 -6.209,2.572 -8.871,4.197 -2.662,1.625 -4.942,3.543 -6.838,5.756 -1.895,2.211 -3.364,4.759 -4.401,7.65 -1.039,2.889 -1.558,6.274 -1.558,10.156 0,4.784 0.812,9.026 2.439,12.729 1.625,3.701 3.903,6.84 6.838,9.412 2.934,2.572 6.477,4.514 10.631,5.823 4.15,1.307 8.801,1.964 13.947,1.964 4.604,0 9.049,-0.453 13.338,-1.354 4.287,-0.904 8.869,-2.213 13.744,-3.928 -0.361,-2.891 -1.013,-6.072 -1.963,-9.546 -0.949,-3.477 -2.144,-6.75 -3.587,-9.818 -2.348,0.993 -5.102,2.032 -8.26,3.115 -3.162,1.082 -7.09,1.625 -11.782,1.625 -1.445,0 -2.824,-0.137 -4.128,-0.406 -1.313,-0.272 -2.487,-0.702 -3.526,-1.288 -1.037,-0.587 -1.871,-1.4 -2.502,-2.436 -0.633,-1.04 -0.947,-2.327 -0.947,-3.86 0,-2.621 0.855,-4.561 2.57,-5.823 1.715,-1.265 3.746,-2.349 6.094,-3.25 l 6.502,-2.572 z" />
      <path
         d="m 275.6484,160.7549 c -1.59,0 -2.877,-1.289 -2.877,-2.877 0,-1.59 1.287,-2.877 2.877,-2.877 1.588,0 2.875,1.287 2.875,2.877 0,1.588 -1.287,2.877 -2.875,2.877"
         style="fill:#ffffff;fill-opacity:1;fill-rule:nonzero;stroke:none"
         id="path268"
         inkscape:connector-curvature="0" />
      <path
         d="m 245.6196,87.0547 3.442,12.353 1.011,3.625 3.68,-0.789 c 0.511,-0.109 0.916,-0.16 1.275,-0.16 l 4.02,0 c 3.398,0 6.163,2.766 6.163,6.165 l 0,0.921 c 0,3.399 -2.765,6.164 -6.163,6.164 l -0.281,0 -5.267,0 1.414,5.075 3.459,12.41 -8.396,0 -6.424,0 2.834,5.764 23.557,47.915 -3.762,0 -22.581,0 -4.54,0 0,-35.964 -12.943,0 0,35.964 -27.12,0 0,-100.417 27.12,0 0,40.388 12.943,0 0,-40.388 4.54,0 1.748,0 0.271,0.974 z"
         style="fill:#151a31;fill-opacity:1;fill-rule:nonzero;stroke:none"
         id="path272"
         inkscape:connector-curvature="0" />
    </g>
  </g>
</svg>
