<?xml version="1.0" encoding="UTF-8" standalone="no"?>
<!-- Created with Inkscape (http://www.inkscape.org/) -->

<svg
   xmlns:dc="http://purl.org/dc/elements/1.1/"
   xmlns:cc="http://creativecommons.org/ns#"
   xmlns:rdf="http://www.w3.org/1999/02/22-rdf-syntax-ns#"
   xmlns:svg="http://www.w3.org/2000/svg"
   xmlns="http://www.w3.org/2000/svg"
   xmlns:sodipodi="http://sodipodi.sourceforge.net/DTD/sodipodi-0.dtd"
   xmlns:inkscape="http://www.inkscape.org/namespaces/inkscape"
   width="126.63138"
   height="125.58555"
   id="svg2"
   version="1.1"
   inkscape:version="0.48.4 r9939"
   sodipodi:docname="hermes-small.svg">
  <defs
     id="defs4" />
  <sodipodi:namedview
     id="base"
     pagecolor="#ffffff"
     bordercolor="#666666"
     borderopacity="1.0"
     inkscape:pageopacity="1"
     inkscape:pageshadow="2"
     inkscape:zoom="0.35"
     inkscape:cx="63.31569"
     inkscape:cy="62.792771"
     inkscape:document-units="px"
     inkscape:current-layer="layer1"
     showgrid="false"
     fit-margin-top="0"
     fit-margin-left="0"
     fit-margin-right="0"
     fit-margin-bottom="0"
     inkscape:window-width="472"
     inkscape:window-height="383"
     inkscape:window-x="10"
     inkscape:window-y="34"
     inkscape:window-maximized="0" />
  <metadata
     id="metadata7">
    <rdf:RDF>
      <cc:Work
         rdf:about="">
        <dc:format>image/svg+xml</dc:format>
        <dc:type
           rdf:resource="http://purl.org/dc/dcmitype/StillImage" />
        <dc:title />
      </cc:Work>
    </rdf:RDF>
  </metadata>
  <g
     inkscape:label="Layer 1"
     inkscape:groupmode="layer"
     id="layer1"
     transform="translate(-311.68431,-469.5694)">
    <path
       inkscape:connector-curvature="0"
       id="path22"
       style="fill:#3573bd;fill-opacity:1;fill-rule:nonzero;stroke:none"
       d="m 438.31569,469.6332 -16.62875,0 0,-0.0638 -15.86125,0 -30.5,62.0375 17.07874,0 -6.09125,21.855 0.35125,0 c 7.01625,0 12.70375,5.68875 12.70375,12.70625 l 0,1.15 c 0,7.01875 -5.6875,12.70625 -12.70375,12.70625 l -5.025,0 c -0.90875,0 -1.78625,-0.1275 -2.64125,-0.31125 l -4.3025,15.44125 46.55126,0 0.44,0 16.62875,0 0,-125.52125 z" />
    <path
       inkscape:connector-curvature="0"
       id="path276"
       style="fill:#ffffff;fill-opacity:1;fill-rule:nonzero;stroke:none"
       d="m 407.49781,501.8122 c -1.9875,0 -3.59625,1.61125 -3.59625,3.59625 0,1.9875 1.60875,3.59625 3.59625,3.59625 1.985,0 3.59375,-1.60875 3.59375,-3.59625 0,-1.985 -1.60875,-3.59625 -3.59375,-3.59625" />
    <path
       inkscape:connector-curvature="0"
       id="path280"
       style="fill:#151a31;fill-opacity:1;fill-rule:nonzero;stroke:none"
       d="m 369.96181,593.93745 4.3025,-15.44125 1.26375,-4.53125 4.6,0.98625 c 0.63875,0.13625 1.145,0.2 1.59375,0.2 l 5.02375,0 c 4.24875,0 7.705,-3.4575 7.705,-7.70625 l 0,-1.15125 c 0,-4.24875 -3.45625,-7.705 -7.705,-7.705 l -0.34875,0 -6.585,0 1.7675,-6.34375 4.32375,-15.5125 -10.495,0 -8.03,0 3.5425,-7.205 29.44625,-59.89375 -4.7025,0 -28.22625,0 -5.675,0 0,44.955 -16.17875,0 0,-44.955 -33.9,0 0,125.52125 33.9,0 0,-50.485 16.17875,0 0,50.485 5.675,0 2.185,0 0.33875,-1.2175 z" />
  </g>
</svg>
